<svg width="116" height="26" viewBox="0 0 116 26" fill="none" xmlns="http://www.w3.org/2000/svg">
<path d="M11.4933 25.84V16.1867L12.64 14.64C12.6044 15.9556 12.3377 17.0933 11.84 18.0533C11.36 18.9956 10.6844 19.7244 9.81329 20.24C8.94218 20.7378 7.91996 20.9867 6.74663 20.9867C5.73329 20.9867 4.80885 20.8 3.97329 20.4267C3.13774 20.0356 2.41774 19.5111 1.81329 18.8533C1.22663 18.1778 0.773294 17.3867 0.453294 16.48C0.151072 15.5733 -3.91402e-05 14.5956 -3.91402e-05 13.5467V12.9333C-3.91402e-05 11.8844 0.159961 10.9067 0.479961 10C0.817739 9.09334 1.28885 8.30222 1.89329 7.62667C2.51552 6.95111 3.24441 6.42667 4.07996 6.05333C4.93329 5.66222 5.87552 5.46667 6.90663 5.46667C8.11552 5.46667 9.15552 5.73334 10.0266 6.26667C10.9155 6.78222 11.6088 7.53778 12.1066 8.53334C12.6044 9.51111 12.8711 10.7111 12.9066 12.1333H12.4V5.89334H15.7866V25.84H11.4933ZM7.99996 17.3867C8.65774 17.3867 9.25329 17.2444 9.78663 16.96C10.3377 16.6578 10.7733 16.2222 11.0933 15.6533C11.4311 15.0844 11.6 14.4 11.6 13.6V12.6133C11.6 11.8311 11.4311 11.1733 11.0933 10.64C10.7555 10.1067 10.3111 9.69778 9.75996 9.41334C9.20885 9.12889 8.62218 8.98667 7.99996 8.98667C7.27107 8.98667 6.62218 9.17334 6.05329 9.54667C5.50218 9.90222 5.06663 10.4 4.74663 11.04C4.42663 11.6622 4.26663 12.4 4.26663 13.2533C4.26663 14.0889 4.42663 14.8178 4.74663 15.44C5.06663 16.0622 5.50218 16.5422 6.05329 16.88C6.62218 17.2178 7.27107 17.3867 7.99996 17.3867ZM24.0566 20.96C22.3677 20.96 21.07 20.4178 20.1633 19.3333C19.2566 18.2311 18.8033 16.5778 18.8033 14.3733V5.89334H23.07V14.5867C23.07 15.3689 23.2922 15.9911 23.7366 16.4533C24.1811 16.9156 24.7766 17.1467 25.5233 17.1467C26.2877 17.1467 26.91 16.9067 27.39 16.4267C27.87 15.9467 28.11 15.2978 28.11 14.48V5.89334H32.3766V20.5067H28.99V14.3467H29.2833C29.2833 15.8222 29.0877 17.0578 28.6966 18.0533C28.3233 19.0311 27.7633 19.76 27.0166 20.24C26.27 20.72 25.3455 20.96 24.2433 20.96H24.0566ZM36.4708 20.5067V5.89334H40.7375V20.5067H36.4708ZM34.5241 9.04V5.89334H40.7375V9.04H34.5241ZM38.1241 4.45333C37.3241 4.45333 36.7286 4.24889 36.3375 3.84C35.9641 3.41334 35.7775 2.88 35.7775 2.24C35.7775 1.58222 35.9641 1.04889 36.3375 0.640002C36.7286 0.213335 37.3241 1.95567e-06 38.1241 1.95567e-06C38.9241 1.95567e-06 39.5108 0.213335 39.8841 0.640002C40.2752 1.04889 40.4708 1.58222 40.4708 2.24C40.4708 2.88 40.2752 3.41334 39.8841 3.84C39.5108 4.24889 38.9241 4.45333 38.1241 4.45333ZM50.7104 21.0133C49.4481 21.0133 48.3459 20.8089 47.4037 20.4C46.4793 19.9733 45.7059 19.4044 45.0837 18.6933C44.4615 17.9822 43.9993 17.1822 43.697 16.2933C43.3948 15.3867 43.2437 14.4533 43.2437 13.4933V12.9867C43.2437 11.9911 43.4037 11.04 43.7237 10.1333C44.0437 9.20889 44.5148 8.39111 45.137 7.68C45.7593 6.96889 46.5326 6.40889 47.457 6C48.3993 5.59111 49.4748 5.38667 50.6837 5.38667C51.9993 5.38667 53.1637 5.64445 54.177 6.16C55.1904 6.65778 55.9993 7.36 56.6037 8.26667C57.2081 9.17334 57.5459 10.2133 57.617 11.3867H53.4304C53.3593 10.7289 53.0926 10.1778 52.6304 9.73334C52.1859 9.27111 51.537 9.04 50.6837 9.04C49.9726 9.04 49.377 9.21778 48.897 9.57334C48.4348 9.92889 48.0881 10.4178 47.857 11.04C47.6259 11.6622 47.5104 12.4 47.5104 13.2533C47.5104 14.0356 47.617 14.7467 47.8304 15.3867C48.0437 16.0089 48.3815 16.4978 48.8437 16.8533C49.3237 17.1911 49.9459 17.36 50.7104 17.36C51.2793 17.36 51.7593 17.2622 52.1504 17.0667C52.5593 16.8533 52.8793 16.5689 53.1104 16.2133C53.3593 15.84 53.5104 15.4133 53.5637 14.9333H57.7237C57.6704 16.1422 57.3326 17.2089 56.7104 18.1333C56.0881 19.04 55.2615 19.7511 54.2304 20.2667C53.1993 20.7644 52.0259 21.0133 50.7104 21.0133ZM70.2125 20.5067L65.5991 13.68H63.5458L69.4925 5.89334H73.9725L68.3725 13.1467L68.4258 11.0667L75.0125 20.5067H70.2125ZM59.9191 20.5067V1.04H64.1858V20.5067H59.9191ZM76.4735 20.5067V1.04H80.7668V20.5067H76.4735ZM74.7402 4.18667V1.04H80.7668V4.18667H74.7402ZM84.8583 20.5067V5.89334H89.125V20.5067H84.8583ZM82.9116 9.04V5.89334H89.125V9.04H82.9116ZM86.5116 4.45333C85.7116 4.45333 85.1161 4.24889 84.725 3.84C84.3516 3.41334 84.165 2.88 84.165 2.24C84.165 1.58222 84.3516 1.04889 84.725 0.640002C85.1161 0.213335 85.7116 1.95567e-06 86.5116 1.95567e-06C87.3116 1.95567e-06 87.8983 0.213335 88.2716 0.640002C88.6627 1.04889 88.8583 1.58222 88.8583 2.24C88.8583 2.88 88.6627 3.41334 88.2716 3.84C87.8983 4.24889 87.3116 4.45333 86.5116 4.45333ZM98.0845 20.96C96.0045 20.96 94.3779 20.5333 93.2045 19.68C92.0312 18.8267 91.409 17.6267 91.3379 16.08H95.1245C95.1956 16.5422 95.4712 16.96 95.9512 17.3333C96.449 17.6889 97.1868 17.8667 98.1645 17.8667C98.9112 17.8667 99.5245 17.7422 100.005 17.4933C100.502 17.2267 100.751 16.8533 100.751 16.3733C100.751 15.9467 100.565 15.6089 100.191 15.36C99.8179 15.0933 99.1512 14.9067 98.1912 14.8L97.0445 14.6933C95.2845 14.5156 93.9601 14.0267 93.0712 13.2267C92.2001 12.4267 91.7645 11.4044 91.7645 10.16C91.7645 9.12889 92.0223 8.26667 92.5379 7.57334C93.0534 6.88 93.7645 6.35556 94.6712 6C95.5956 5.64445 96.6445 5.46667 97.8179 5.46667C99.7023 5.46667 101.222 5.88445 102.378 6.72C103.533 7.53778 104.138 8.72889 104.191 10.2933H100.405C100.333 9.81334 100.085 9.41334 99.6579 9.09333C99.2312 8.75556 98.6001 8.58667 97.7645 8.58667C97.1068 8.58667 96.5823 8.71111 96.1912 8.96C95.8001 9.20889 95.6045 9.54667 95.6045 9.97334C95.6045 10.3822 95.7734 10.6933 96.1112 10.9067C96.449 11.12 97.0001 11.2711 97.7645 11.36L98.9112 11.4667C100.707 11.6622 102.102 12.16 103.098 12.96C104.093 13.76 104.591 14.8356 104.591 16.1867C104.591 17.1644 104.325 18.0178 103.791 18.7467C103.258 19.4578 102.502 20.0089 101.525 20.4C100.547 20.7733 99.4001 20.96 98.0845 20.96ZM113.462 20.6933C111.987 20.6933 110.796 20.5156 109.889 20.16C108.982 19.7867 108.316 19.1733 107.889 18.32C107.48 17.4489 107.276 16.2756 107.276 14.8V1.94667H111.249V14.96C111.249 15.6533 111.427 16.1867 111.782 16.56C112.156 16.9156 112.68 17.0933 113.356 17.0933H115.516V20.6933H113.462ZM105.062 9.01334V5.89334H115.516V9.01334H105.062Z" fill="#374151"/>
</svg>
