<svg width="31" height="24" viewBox="0 0 31 24" fill="none" xmlns="http://www.w3.org/2000/svg">
<g clip-path="url(#clip0_3125_691)">
<path d="M9.15385 5.02513C8.48215 5.00615 7.84452 4.7331 7.3763 4.26398C6.9081 3.79485 6.64615 3.16659 6.64615 2.51258C6.64615 1.85856 6.9081 1.23027 7.3763 0.761146C7.84452 0.292019 8.48215 0.0189969 9.15385 0H25.585C26.2567 0.0189969 26.8944 0.292019 27.3626 0.761146C27.8307 1.23027 28.0927 1.85856 28.0927 2.51258C28.0927 3.16659 27.8307 3.79485 27.3626 4.26398C26.8944 4.7331 26.2567 5.00615 25.585 5.02513H9.15385ZM2.58271 9.39271C3.09352 9.39271 3.59286 9.24528 4.01758 8.96908C4.4423 8.69288 4.77334 8.3003 4.96882 7.841C5.16429 7.38169 5.21543 6.87629 5.11578 6.38871C5.01613 5.90111 4.77013 5.45321 4.40893 5.10169C4.04774 4.75014 3.58754 4.51074 3.08657 4.41373C2.58557 4.31675 2.06626 4.36652 1.59434 4.55677C1.12241 4.74702 0.71905 5.06921 0.435259 5.48257C0.151469 5.89595 0 6.38192 0 6.87907C0.00173124 7.54462 0.274615 8.18236 0.758778 8.65238C1.24294 9.1224 1.89887 9.38636 2.58271 9.38636V9.39271ZM4.93002 18.2742C4.24505 18.2742 3.58809 18.5391 3.10374 19.0105C2.61939 19.4819 2.34731 20.1212 2.34731 20.7879C2.34731 21.4546 2.61939 22.0939 3.10374 22.5652C3.58809 23.0366 4.24505 23.3015 4.93002 23.3015H21.359C22.044 23.3015 22.7009 23.0366 23.1852 22.5652C23.6697 22.0939 23.9417 21.4546 23.9417 20.7879C23.9417 20.1212 23.6697 19.4819 23.1852 19.0105C22.7009 18.5391 22.044 18.2742 21.359 18.2742H4.93002ZM8.68528 9.13818C8.33994 9.1284 7.9961 9.18616 7.67413 9.30803C7.35215 9.42991 7.05855 9.61344 6.81074 9.84771C6.56291 10.082 6.36591 10.3623 6.23139 10.672C6.09685 10.9817 6.02755 11.3145 6.02755 11.6507C6.02755 11.987 6.09685 12.3198 6.23139 12.6295C6.36591 12.9392 6.56291 13.2195 6.81074 13.4538C7.05855 13.6881 7.35215 13.8716 7.67413 13.9934C7.9961 14.1153 8.33994 14.1731 8.68528 14.1633H21.8276C22.173 14.1731 22.5167 14.1153 22.8388 13.9934C23.1608 13.8716 23.4543 13.6881 23.7021 13.4538C23.9499 13.2195 24.147 12.9392 24.2814 12.6295C24.4159 12.3198 24.4852 11.987 24.4852 11.6507C24.4852 11.3145 24.4159 10.9817 24.2814 10.672C24.147 10.3623 23.9499 10.082 23.7021 9.84771C23.4543 9.61344 23.1608 9.42991 22.8388 9.30803C22.5167 9.18616 22.173 9.1284 21.8276 9.13818H8.68528ZM27.9323 13.9088C27.4214 13.9084 26.9217 14.0555 26.4967 14.3315C26.0715 14.6076 25.7402 15.0001 25.5445 15.4595C25.3487 15.9189 25.2973 16.4245 25.3969 16.9123C25.4965 17.4001 25.7426 17.8482 26.1039 18.1998C26.4653 18.5515 26.9256 18.7909 27.4269 18.8878C27.9279 18.9848 28.4475 18.9348 28.9194 18.7443C29.3915 18.5538 29.7949 18.2313 30.0784 17.8176C30.362 17.4039 30.5133 16.9176 30.5128 16.4203C30.5137 16.0899 30.4477 15.7627 30.3182 15.4572C30.1889 15.1518 29.9991 14.8742 29.7594 14.6403C29.5196 14.4064 29.2348 14.2208 28.9214 14.0942C28.6079 13.9676 28.2719 13.9024 27.9323 13.9024V13.9088Z" fill="#CA3884"/>
</g>
<defs>
<clipPath id="clip0_3125_691">
<rect width="30.5128" height="23.3333" fill="white"/>
</clipPath>
</defs>
</svg>
